<svg xmlns="http://www.w3.org/2000/svg" viewBox="0 0 64 64" role="img" aria-label="JOC logo mark">
  <defs>
    <linearGradient id="g" x1="0" y1="0" x2="0" y2="1">
      <stop offset="0" stop-color="#9BE564" />
      <stop offset="1" stop-color="#4CC24A" />
    </linearGradient>
  </defs>
  <rect width="64" height="64" rx="16" fill="#0F1A12" />
  <path d="M20 16h24l-3.4 30.5a4 4 0 0 1-4 3.5H27.4a4 4 0 0 1-4-3.5L20 16Z" fill="url(#g)" />
  <path d="M22.6 28h18.8l-2.6 18.2a2 2 0 0 1-2 1.6h-9.6a2 2 0 0 1-2-1.6L22.6 28Z" fill="#0F1A12" opacity=".22" />
  <rect x="33" y="6" width="4.5" height="26" rx="2.25" transform="rotate(12 35 19)" fill="#FDE047" />
  <circle cx="47" cy="20" r="5" fill="#FF7A3D" />
</svg>
